<?xml version="1.0" encoding="UTF-8" standalone="no"?>
<svg width="512px" height="513px" viewBox="0 0 512 513" version="1.1" xmlns="http://www.w3.org/2000/svg" xmlns:xlink="http://www.w3.org/1999/xlink">
    <!-- Generator: Sketch 47.1 (45422) - http://www.bohemiancoding.com/sketch -->
    <title>card-fraud</title>
    <desc>Created with Sketch.</desc>
    <defs></defs>
    <g id="icons" stroke="none" stroke-width="1" fill="none" fill-rule="evenodd">
        <g id="card-fraud" fill="#FB6E00">
            <g id="Group-3" opacity="0.2" transform="translate(265.000000, 338.000000)">
                <circle id="Oval-14" cx="54" cy="54" r="54"></circle>
                <circle id="Oval-14-Copy" cx="132" cy="54" r="54"></circle>
            </g>
            <circle id="Oval-14" fill-opacity="0.2" cx="321.5" cy="84.5" r="37.5"></circle>
            <path d="M488,149.291016 L334.183,149.291016 C334.279,148.732928 334.339,148.162816 334.339,147.577676 L334.339,129.0706 C354.763,124.368434 370,106.055736 370,84.1640625 C370,62.1501504 354.593,43.7532891 333.996,39.1783711 C333.996,39.1523203 334,39.1272715 334,39.1012207 L334,10.0195312 C334,4.48574414 329.522,0 324,0 C318.478,0 314,4.48574414 314,10.0195312 L314,39.1012207 C314,39.1272715 314.004,39.1523203 314.004,39.1783711 C293.407,43.7532891 278,62.1501504 278,84.1640625 C278,106.297207 293.574,124.779234 314.339,129.226904 L314.339,147.577676 C314.339,148.162816 314.4,148.732928 314.495,149.291016 L192,149.291016 C192,143.508744 192,136.863791 192,128.119746 L192,119.152266 L205.701,127.729986 C210.385,130.661701 216.554,129.233918 219.481,124.541771 C222.407,119.848623 220.982,113.667574 216.299,110.734857 L187.299,92.5804687 C180.638,88.4113418 172,93.2086934 172,101.078033 L172,149.291016 L24,149.291016 C10.745,149.291016 0,160.057002 0,173.337891 L0,488.953125 C0,502.234014 10.745,513 24,513 L488,513 C501.255,513 512,502.234014 512,488.953125 L512,173.337891 C512,160.057002 501.255,149.291016 488,149.291016 Z M324,58.1132812 C334.815,58.1132812 344.086,64.7311816 348.004,74.1445312 L299.996,74.1445312 C303.914,64.7311816 313.185,58.1132812 324,58.1132812 Z M299.996,94.1835938 L348.004,94.1835938 C344.086,103.596943 334.816,110.214844 324,110.214844 C313.184,110.214844 303.914,103.596943 299.996,94.1835938 Z M20,173.337891 C20,171.124576 21.791,169.330078 24,169.330078 L172,169.330078 L172,190.371094 L20,190.371094 L20,173.337891 Z M20,210.410156 L173.375,210.410156 C176.405,229.797949 184.479,245.257084 197.409,256.5 L20,256.5 L20,210.410156 Z M492,488.953125 C492,491.166439 490.209,492.960938 488,492.960938 L24,492.960938 C21.791,492.960938 20,491.166439 20,488.953125 L20,276.539062 L492,276.539062 L492,488.953125 Z M492,190.315986 L224,190.315986 C218.477,190.315986 214,194.80173 214,200.335518 C214,205.869305 218.477,210.355049 224,210.355049 L492,210.355049 L492,256.5 L244.336,256.5 C243.739,256.362732 242.882,256.137293 242.062,255.967963 C208.099,248.927238 192,228.312053 192,192.025318 C192,182.493738 192,175.503111 192,169.330078 L488,169.330078 C490.209,169.330078 492,171.124576 492,173.337891 L492,190.315986 Z M318,456.890625 C331.473,456.890625 344.318,452.695447 355.016,445.083609 C365.462,452.510086 378.217,456.890625 392,456.890625 C427.347,456.890625 456,428.181662 456,392.765625 C456,357.35059 427.347,328.640625 392,328.640625 C378.212,328.640625 365.454,333.02417 355.006,340.454654 C354.95,340.413574 354.901,340.367484 354.844,340.327406 C344.143,332.766668 331.367,328.640625 318,328.640625 C282.654,328.640625 254,357.35059 254,392.765625 C254,428.181662 282.654,456.890625 318,456.890625 Z M392,348.679688 C416.301,348.679688 436,368.417162 436,392.765625 C436,417.114088 416.301,436.851562 392,436.851562 C367.699,436.851562 348,417.114088 348,392.765625 C348,368.417162 367.699,348.679688 392,348.679688 Z M318,348.679688 C326.023,348.679688 333.705,350.828877 340.415,354.820658 C332.616,365.446371 328,378.563941 328,392.765625 C328,406.967309 332.615,420.083877 340.414,430.708588 C333.722,434.689348 326.036,436.851562 318,436.851562 C293.699,436.851562 274,417.114088 274,392.765625 C274,368.417162 293.699,348.679688 318,348.679688 Z" id="Shape-Copy" fill-rule="nonzero"></path>
        </g>
    </g>
</svg>